<?xml version="1.0" encoding="iso-8859-1"?>
<!-- Generator: Adobe Illustrator 28.1.0, SVG Export Plug-In . SVG Version: 6.00 Build 0)  -->
<svg version="1.1" xmlns="http://www.w3.org/2000/svg" xmlns:xlink="http://www.w3.org/1999/xlink" x="0px" y="0px"
	 viewBox="0 0 1080 1080" style="enable-background:new 0 0 1080 1080;" xml:space="preserve">
<g id="_x31_080_x__x_1080_px_-_9">
	<g id="Background">
		
			<rect id="Background_00000083788989967809288890000001561099160997459589_" x="1080" y="2160" style="fill:#F8C11F;" width="1080" height="1080"/>
	</g>
	<g id="Graphic_Elements">
		<g id="Matisse_Shape_00000078008275705415907490000009175908945626033826_">
			<defs>
				<rect id="Clipping_mask_00000127038867991241127760000007982472493132079532_" x="1080" y="2160" width="1080" height="1080"/>
			</defs>
			<clipPath id="Clipping_mask_00000123420238469665605890000001698467879727721391_">
				<use xlink:href="#Clipping_mask_00000127038867991241127760000007982472493132079532_"  style="overflow:visible;"/>
			</clipPath>
			
				<path id="Matisse_Shape_Small_00000047764749026499389440000011047597056940959904_" style="clip-path:url(#Clipping_mask_00000123420238469665605890000001698467879727721391_);fill:#FCE3C7;" d="
				M2264.515,2576.864c-6.44-146.207-76.408-214.54-249.348-182.402c-33.009,6.134-54.402,21.024-73.41-15.129
				c-12.684-24.126,31.006-47.524,61.664-131.833c34.021-93.559-0.564-156.435-65.916-202.002
				c-70.55-49.191-188.483-32.212-233.897,46.779c-61.5,106.969,0.754,203.36-87.18,282.803
				c-82.756,74.765-145.39,16.936-167.916-84.639c-13.214-59.588-32.976-117.476-107.171-158.696
				c-82.638-45.91-152.511-12.23-188.417,32.407s-38.311,145.012-10.845,227.082c44.313,132.406,216.982,247.766,80.977,338.945
				c-39.646,26.579-244.36,8.036-393.005,146.063c-132.223,122.779-87.289,289.74,77.648,400.977
				c79.319,53.494,230.579,7.378,332.034-112.523c64.055-75.701,204.754-271.161,261.873-98.556
				c37.469,113.226,63.953,206.647,180.839,281.175c80.057,51.045,207.091,36.076,269.316-25.825
				c75.561-75.166,83.008-154.949,15.513-236.213c-72.173-86.895-305.817-167.549-240.707-302.828
				c51.054-106.076,170.067-120.31,278.689-58.62C2198.52,2833.59,2268.056,2657.256,2264.515,2576.864z"/>
		</g>
	</g>
	<g id="PLACEHOLDER">
	</g>
</g>
<g id="_x31_080_x__x_1080_px_-_8">
	<g id="Background_00000155140809032758408920000012013678396157007751_">
		
			<rect id="Background_00000163073246209984839360000000273481732715516846_" y="2160" style="fill:#F8C11F;" width="1080" height="1080"/>
	</g>
	<g id="Graphic_Elements_00000116919168717368561520000006206500853443416227_">
		<g id="Matisse_Shapes">
			<defs>
				<rect id="Clipping_mask_00000015349508716888361440000000782774738047447182_" y="2160" width="1080" height="1080"/>
			</defs>
			<clipPath id="Clipping_mask_00000173842450143327031550000000516301627664475566_">
				<use xlink:href="#Clipping_mask_00000015349508716888361440000000782774738047447182_"  style="overflow:visible;"/>
			</clipPath>
			
				<path id="Matisse_Shape_Small_00000085948312908767619780000002911774841475170229_" style="clip-path:url(#Clipping_mask_00000173842450143327031550000000516301627664475566_);fill:#FCE3C7;" d="
				M2264.515,2576.864c-6.44-146.207-76.408-214.54-249.348-182.402c-33.009,6.134-54.402,21.024-73.41-15.129
				c-12.684-24.126,31.006-47.524,61.664-131.833c34.021-93.559-0.564-156.435-65.916-202.002
				c-70.55-49.191-188.483-32.212-233.897,46.779c-61.5,106.969,0.754,203.36-87.18,282.803
				c-82.756,74.765-145.39,16.936-167.916-84.639c-13.214-59.588-32.976-117.476-107.171-158.696
				c-82.638-45.91-152.511-12.23-188.417,32.407s-38.311,145.012-10.845,227.082c44.313,132.406,216.982,247.766,80.977,338.945
				c-39.646,26.579-244.36,8.036-393.005,146.063c-132.223,122.779-87.289,289.74,77.648,400.977
				c79.319,53.494,230.579,7.378,332.034-112.523c64.055-75.701,204.754-271.161,261.873-98.556
				c37.469,113.226,63.953,206.647,180.839,281.175c80.057,51.045,207.091,36.076,269.316-25.825
				c75.561-75.166,83.008-154.949,15.513-236.213c-72.173-86.895-305.817-167.549-240.707-302.828
				c51.054-106.076,170.067-120.31,278.689-58.62C2198.52,2833.59,2268.056,2657.256,2264.515,2576.864z"/>
			
				<path id="Matisse_Shape_Large_00000114768954169628861860000005446071524313883833_" style="clip-path:url(#Clipping_mask_00000173842450143327031550000000516301627664475566_);fill:#FCE3C7;" d="
				M525.733,849.316c210.467-67.525,449.872,161.673,745.534,72.631c133.607-40.237,298.294-213.895,158.557-387.111
				c-68.699-85.158-132.719-143.336-323.833-196.424C895.898,280.054,675.982,306.56,795.18-11.678
				c34.327-91.649,65.8-201.541-90.201-246.112c-86.561-24.732-275.898,50.962-297.264,334.734
				c-13.917,184.839,23.618,333.389-44.643,508.727c-42.124,108.201-138.398,150.382-222.646,69.112
				C-29.867,490.512,58.613,207.734-134.544-1.93c-92.525-100.432-195.574-160.2-335.721-102.492
				c-106.62,43.902-125.149,172.726-103.049,245.257C-503.591,369.66-345.509,466.66-224.47,662.261
				C-168.538,752.647-105.953,853.8-82.8,959.045c22.671,103.049,26.115,210.034-64.074,276.546
				c-93.358,68.85-240.882-4.487-318.525-69.014c-126.863-105.433-170.647-234.736-235.979-378.492
				C-767.726,642.091-940,564.002-1070.595,598.541c-96.892,25.626-164.059,131.824-159.262,222.967
				c5.309,100.866,63.298,184.208,169.88,291.981c71.137,71.932,554.168,329.798,374.616,438.684
				c-43.627,26.457-124.966-53.151-210.305,32.868c-85.058,85.736-105.667,361.793-68.236,624.354
				c40.664,285.238,149.825,554.547,319.266,546.605c112.468-5.272,115.1-119.276,115.983-151.129
				c2.914-105.121-33.655-188.284-53.849-297.397c-9.195-49.679-84.601-233.984-16.215-263.601
				c96.424-41.761,156.173,221.836,253.558,352.723c104.117,139.933,250.562,260.994,365.41,188.565
				c63.318-39.932,59.798-138.732,43.31-196.439c-58.394-204.377-265.116-294.657-342.876-472.43
				c-10.068-23.018-12.818-99.531,37.82-101.939c74.443-3.54,142.052,89.106,195.793,136.025
				c165.242,144.263,312.527,235.345,523.988,299.516c79.472,24.117,184.594,31.199,236.085-6.373
				c46.186-33.701,69.547-114.579,54.132-168.196c-64.814-225.432-533.146-229.23-658.736-507.821
				c-19.957-44.269-46.068-127.578,6.172-154.156c100.104-50.929,250.445,109.237,339.062,166.667
				c222.132,143.955,503.881,246.068,756.836,117.849c84.316-42.738,135.065-162.603,44.118-225.599
				c-211.815-146.718-486.484-102.829-672.331-285.084C430.838,1037.349,444.943,875.236,525.733,849.316z"/>
		</g>
	</g>
	<g id="Text_7_">
	</g>
</g>
<g id="_x31_080_x__x_1080_px_-_7">
	<g id="Background_00000113330289921781588330000011323428788566997659_">
		
			<rect id="Background_00000021091445119332664680000007386031042888231573_" x="-1080" y="2160" style="fill:#F8C11F;" width="1080" height="1080"/>
	</g>
	<g id="Graphic_Elements_00000093172342308468842330000007557194468205640889_">
		<g id="Matisse_Shape_00000170272437901377229780000017752516854618246570_">
			<defs>
				<rect id="Clipping_mask_00000030479087079211032240000004308890562358311835_" x="-1080" y="2160" width="1080" height="1080"/>
			</defs>
			<clipPath id="Clipping_mask_00000093872858515873515250000001749790576396818600_">
				<use xlink:href="#Clipping_mask_00000030479087079211032240000004308890562358311835_"  style="overflow:visible;"/>
			</clipPath>
			
				<path id="Matisse_Shape_Large_00000044883445709992308320000018126185701973929376_" style="clip-path:url(#Clipping_mask_00000093872858515873515250000001749790576396818600_);fill:#FCE3C7;" d="
				M525.733,849.316c210.467-67.525,449.872,161.673,745.534,72.631c133.607-40.237,298.294-213.895,158.557-387.111
				c-68.699-85.158-132.719-143.336-323.833-196.424C895.898,280.054,675.982,306.56,795.18-11.678
				c34.327-91.649,65.8-201.541-90.201-246.112c-86.561-24.732-275.898,50.962-297.264,334.734
				c-13.917,184.839,23.618,333.389-44.643,508.727c-42.124,108.201-138.398,150.382-222.646,69.112
				C-29.867,490.512,58.613,207.734-134.544-1.93c-92.525-100.432-195.574-160.2-335.721-102.492
				c-106.62,43.902-125.149,172.726-103.049,245.257C-503.591,369.66-345.509,466.66-224.47,662.261
				C-168.538,752.647-105.953,853.8-82.8,959.045c22.671,103.049,26.115,210.034-64.074,276.546
				c-93.358,68.85-240.882-4.487-318.525-69.014c-126.863-105.433-170.647-234.736-235.979-378.492
				C-767.726,642.091-940,564.002-1070.595,598.541c-96.892,25.626-164.059,131.824-159.262,222.967
				c5.309,100.866,63.298,184.208,169.88,291.981c71.137,71.932,554.168,329.798,374.616,438.684
				c-43.627,26.457-124.966-53.151-210.305,32.868c-85.058,85.736-105.667,361.793-68.236,624.354
				c40.664,285.238,149.825,554.547,319.266,546.605c112.468-5.272,115.1-119.276,115.983-151.129
				c2.914-105.121-33.655-188.284-53.849-297.397c-9.195-49.679-84.601-233.984-16.215-263.601
				c96.424-41.761,156.173,221.836,253.558,352.723c104.117,139.933,250.562,260.994,365.41,188.565
				c63.318-39.932,59.798-138.732,43.31-196.439c-58.394-204.377-265.116-294.657-342.876-472.43
				c-10.068-23.018-12.818-99.531,37.82-101.939c74.443-3.54,142.052,89.106,195.793,136.025
				c165.242,144.263,312.527,235.345,523.988,299.516c79.472,24.117,184.594,31.199,236.085-6.373
				c46.186-33.701,69.547-114.579,54.132-168.196c-64.814-225.432-533.146-229.23-658.736-507.821
				c-19.957-44.269-46.068-127.578,6.172-154.156c100.104-50.929,250.445,109.237,339.062,166.667
				c222.132,143.955,503.881,246.068,756.836,117.849c84.316-42.738,135.065-162.603,44.118-225.599
				c-211.815-146.718-486.484-102.829-672.331-285.084C430.838,1037.349,444.943,875.236,525.733,849.316z"/>
		</g>
	</g>
	<g id="PLACEHOLDER_00000165917978049004894740000006647859823170355376_">
	</g>
	<g id="Text_8_">
	</g>
</g>
<g id="_x31_080_x__x_1080_px_-_6">
	<g id="Background_00000134214107442577932420000009596135156121860998_">
		
			<rect id="Background_00000027606550847924566510000002136941325033894314_" x="1080" y="1080" style="fill:#A9DDD0;" width="1080" height="1080"/>
	</g>
	<g id="Graphic_Elements_00000045616015659619361400000013246521443153240710_">
		<g id="Matisse_Shapes_00000137810549385495518940000012938488758164169349_">
			<defs>
				<rect id="Clipping_mask_00000103248746540217881570000007463852369918362283_" x="1080" y="1080" width="1080" height="1080"/>
			</defs>
			<clipPath id="Clipping_mask_00000069365146942517474890000016908458240807961732_">
				<use xlink:href="#Clipping_mask_00000103248746540217881570000007463852369918362283_"  style="overflow:visible;"/>
			</clipPath>
			
				<path id="Matisse_Shape_Small_00000117649397538275948570000014220463643225883046_" style="clip-path:url(#Clipping_mask_00000069365146942517474890000016908458240807961732_);fill:#FCE3C7;" d="
				M2264.515,2576.864c-6.44-146.207-76.408-214.54-249.348-182.402c-33.009,6.134-54.402,21.024-73.41-15.129
				c-12.684-24.126,31.006-47.524,61.664-131.833c34.021-93.559-0.564-156.435-65.916-202.002
				c-70.55-49.191-188.483-32.212-233.897,46.779c-61.5,106.969,0.754,203.36-87.18,282.803
				c-82.756,74.765-145.39,16.936-167.916-84.639c-13.214-59.588-32.976-117.476-107.171-158.696
				c-82.638-45.91-152.511-12.23-188.417,32.407s-38.311,145.012-10.845,227.082c44.313,132.406,216.982,247.766,80.977,338.945
				c-39.646,26.579-244.36,8.036-393.005,146.063c-132.223,122.779-87.289,289.74,77.648,400.977
				c79.319,53.494,230.579,7.378,332.034-112.523c64.055-75.701,204.754-271.161,261.873-98.556
				c37.469,113.226,63.953,206.647,180.839,281.175c80.057,51.045,207.091,36.076,269.316-25.825
				c75.561-75.166,83.008-154.949,15.513-236.213c-72.173-86.895-305.817-167.549-240.707-302.828
				c51.054-106.076,170.067-120.31,278.689-58.62C2198.52,2833.59,2268.056,2657.256,2264.515,2576.864z"/>
			
				<path id="Matisse_Shape_Large_00000181050336509087214220000005470137771245943456_" style="clip-path:url(#Clipping_mask_00000069365146942517474890000016908458240807961732_);fill:#FCE3C7;" d="
				M525.733,849.316c210.467-67.525,449.872,161.673,745.534,72.631c133.607-40.237,298.294-213.895,158.557-387.111
				c-68.699-85.158-132.719-143.336-323.833-196.424C895.898,280.054,675.982,306.56,795.18-11.678
				c34.327-91.649,65.8-201.541-90.201-246.112c-86.561-24.732-275.898,50.962-297.264,334.734
				c-13.917,184.839,23.618,333.389-44.643,508.727c-42.124,108.201-138.398,150.382-222.646,69.112
				C-29.867,490.512,58.613,207.734-134.544-1.93c-92.525-100.432-195.574-160.2-335.721-102.492
				c-106.62,43.902-125.149,172.726-103.049,245.257C-503.591,369.66-345.509,466.66-224.47,662.261
				C-168.538,752.647-105.953,853.8-82.8,959.045c22.671,103.049,26.115,210.034-64.074,276.546
				c-93.358,68.85-240.882-4.487-318.525-69.014c-126.863-105.433-170.647-234.736-235.979-378.492
				C-767.726,642.091-940,564.002-1070.595,598.541c-96.892,25.626-164.059,131.824-159.262,222.967
				c5.309,100.866,63.298,184.208,169.88,291.981c71.137,71.932,554.168,329.798,374.616,438.684
				c-43.627,26.457-124.966-53.151-210.305,32.868c-85.058,85.736-105.667,361.793-68.236,624.354
				c40.664,285.238,149.825,554.547,319.266,546.605c112.468-5.272,115.1-119.276,115.983-151.129
				c2.914-105.121-33.655-188.284-53.849-297.397c-9.195-49.679-84.601-233.984-16.215-263.601
				c96.424-41.761,156.173,221.836,253.558,352.723c104.117,139.933,250.562,260.994,365.41,188.565
				c63.318-39.932,59.798-138.732,43.31-196.439c-58.394-204.377-265.116-294.657-342.876-472.43
				c-10.068-23.018-12.818-99.531,37.82-101.939c74.443-3.54,142.052,89.106,195.793,136.025
				c165.242,144.263,312.527,235.345,523.988,299.516c79.472,24.117,184.594,31.199,236.085-6.373
				c46.186-33.701,69.547-114.579,54.132-168.196c-64.814-225.432-533.146-229.23-658.736-507.821
				c-19.957-44.269-46.068-127.578,6.172-154.156c100.104-50.929,250.445,109.237,339.062,166.667
				c222.132,143.955,503.881,246.068,756.836,117.849c84.316-42.738,135.065-162.603,44.118-225.599
				c-211.815-146.718-486.484-102.829-672.331-285.084C430.838,1037.349,444.943,875.236,525.733,849.316z"/>
		</g>
	</g>
	<g id="Text_2_">
	</g>
</g>
<g id="_x31_080_x__x_1080_px_-_5">
	<g id="Background_00000052072980051085059230000013586780268779050403_">
		
			<rect id="Background_00000145763382766583751240000002867453353336918456_" y="1080" style="fill:#FCE3C7;" width="1080" height="1080"/>
	</g>
	<g id="Graphic_Elements_00000164511861809343104820000017193035955711932292_">
		<g id="Matisse_Shape_00000013182091133424882300000002964432057234707085_">
			<defs>
				<rect id="Clipping_mask_00000061438016264285216040000003521708513292147131_" y="1080" width="1080" height="1080"/>
			</defs>
			<clipPath id="Clipping_mask_00000098934914241842360500000001784069966873090729_">
				<use xlink:href="#Clipping_mask_00000061438016264285216040000003521708513292147131_"  style="overflow:visible;"/>
			</clipPath>
			
				<path id="Matisse_Shape_Large_00000103245869856785904520000009322743480444064416_" style="clip-path:url(#Clipping_mask_00000098934914241842360500000001784069966873090729_);fill:#A9DDD0;" d="
				M525.733,849.316c210.467-67.525,449.872,161.673,745.534,72.631c133.607-40.237,298.294-213.895,158.557-387.111
				c-68.699-85.158-132.719-143.336-323.833-196.424C895.898,280.054,675.982,306.56,795.18-11.678
				c34.327-91.649,65.8-201.541-90.201-246.112c-86.561-24.732-275.898,50.962-297.264,334.734
				c-13.917,184.839,23.618,333.389-44.643,508.727c-42.124,108.201-138.398,150.382-222.646,69.112
				C-29.867,490.512,58.613,207.734-134.544-1.93c-92.525-100.432-195.574-160.2-335.721-102.492
				c-106.62,43.902-125.149,172.726-103.049,245.257C-503.591,369.66-345.509,466.66-224.47,662.261
				C-168.538,752.647-105.953,853.8-82.8,959.045c22.671,103.049,26.115,210.034-64.074,276.546
				c-93.358,68.85-240.882-4.487-318.525-69.014c-126.863-105.433-170.647-234.736-235.979-378.492
				C-767.726,642.091-940,564.002-1070.595,598.541c-96.892,25.626-164.059,131.824-159.262,222.967
				c5.309,100.866,63.298,184.208,169.88,291.981c71.137,71.932,554.168,329.798,374.616,438.684
				c-43.627,26.457-124.966-53.151-210.305,32.868c-85.058,85.736-105.667,361.793-68.236,624.354
				c40.664,285.238,149.825,554.547,319.266,546.605c112.468-5.272,115.1-119.276,115.983-151.129
				c2.914-105.121-33.655-188.284-53.849-297.397c-9.195-49.679-84.601-233.984-16.215-263.601
				c96.424-41.761,156.173,221.836,253.558,352.723c104.117,139.933,250.562,260.994,365.41,188.565
				c63.318-39.932,59.798-138.732,43.31-196.439c-58.394-204.377-265.116-294.657-342.876-472.43
				c-10.068-23.018-12.818-99.531,37.82-101.939c74.443-3.54,142.052,89.106,195.793,136.025
				c165.242,144.263,312.527,235.345,523.988,299.516c79.472,24.117,184.594,31.199,236.085-6.373
				c46.186-33.701,69.547-114.579,54.132-168.196c-64.814-225.432-533.146-229.23-658.736-507.821
				c-19.957-44.269-46.068-127.578,6.172-154.156c100.104-50.929,250.445,109.237,339.062,166.667
				c222.132,143.955,503.881,246.068,756.836,117.849c84.316-42.738,135.065-162.603,44.118-225.599
				c-211.815-146.718-486.484-102.829-672.331-285.084C430.838,1037.349,444.943,875.236,525.733,849.316z"/>
		</g>
	</g>
	<g id="PLACEHOLDER_00000049191743022995416730000009502745521336784286_">
	</g>
	<g id="Text_1_">
	</g>
</g>
<g id="_x31_080_x__x_1080_px_-_4">
	<g id="Background_00000045582987916298552550000007296127408056566715_">
		
			<rect id="Background_00000171706488279287667620000014184395910023838084_" x="-1080" y="1080" style="fill:#A9DDD0;" width="1080" height="1080"/>
	</g>
	<g id="Graphic_Elements_00000094619267814289150120000000079022562796935307_">
		<g id="Matisse_Shape_00000080893281012628106880000005346855211567695749_">
			<defs>
				<rect id="Clipping_mask_00000106146282185802887320000011067224492930523303_" x="-1080" y="1080" width="1080" height="1080"/>
			</defs>
			<clipPath id="Clipping_mask_00000072996532495025999260000001430926673265756809_">
				<use xlink:href="#Clipping_mask_00000106146282185802887320000011067224492930523303_"  style="overflow:visible;"/>
			</clipPath>
			
				<path id="Matisse_Shape_Large_00000109741304496321167620000015667015828343448246_" style="clip-path:url(#Clipping_mask_00000072996532495025999260000001430926673265756809_);fill:#FCE3C7;" d="
				M525.733,849.316c210.467-67.525,449.872,161.673,745.534,72.631c133.607-40.237,298.294-213.895,158.557-387.111
				c-68.699-85.158-132.719-143.336-323.833-196.424C895.898,280.054,675.982,306.56,795.18-11.678
				c34.327-91.649,65.8-201.541-90.201-246.112c-86.561-24.732-275.898,50.962-297.264,334.734
				c-13.917,184.839,23.618,333.389-44.643,508.727c-42.124,108.201-138.398,150.382-222.646,69.112
				C-29.867,490.512,58.613,207.734-134.544-1.93c-92.525-100.432-195.574-160.2-335.721-102.492
				c-106.62,43.902-125.149,172.726-103.049,245.257C-503.591,369.66-345.509,466.66-224.47,662.261
				C-168.538,752.647-105.953,853.8-82.8,959.045c22.671,103.049,26.115,210.034-64.074,276.546
				c-93.358,68.85-240.882-4.487-318.525-69.014c-126.863-105.433-170.647-234.736-235.979-378.492
				C-767.726,642.091-940,564.002-1070.595,598.541c-96.892,25.626-164.059,131.824-159.262,222.967
				c5.309,100.866,63.298,184.208,169.88,291.981c71.137,71.932,554.168,329.798,374.616,438.684
				c-43.627,26.457-124.966-53.151-210.305,32.868c-85.058,85.736-105.667,361.793-68.236,624.354
				c40.664,285.238,149.825,554.547,319.266,546.605c112.468-5.272,115.1-119.276,115.983-151.129
				c2.914-105.121-33.655-188.284-53.849-297.397c-9.195-49.679-84.601-233.984-16.215-263.601
				c96.424-41.761,156.173,221.836,253.558,352.723c104.117,139.933,250.562,260.994,365.41,188.565
				c63.318-39.932,59.798-138.732,43.31-196.439c-58.394-204.377-265.116-294.657-342.876-472.43
				c-10.068-23.018-12.818-99.531,37.82-101.939c74.443-3.54,142.052,89.106,195.793,136.025
				c165.242,144.263,312.527,235.345,523.988,299.516c79.472,24.117,184.594,31.199,236.085-6.373
				c46.186-33.701,69.547-114.579,54.132-168.196c-64.814-225.432-533.146-229.23-658.736-507.821
				c-19.957-44.269-46.068-127.578,6.172-154.156c100.104-50.929,250.445,109.237,339.062,166.667
				c222.132,143.955,503.881,246.068,756.836,117.849c84.316-42.738,135.065-162.603,44.118-225.599
				c-211.815-146.718-486.484-102.829-672.331-285.084C430.838,1037.349,444.943,875.236,525.733,849.316z"/>
		</g>
	</g>
	<g id="Text_3_">
	</g>
</g>
<g id="_x31_080_x__x_1080_px_-_3">
	<g id="Background_00000026869990844981960960000011712425572283610041_">
		
			<rect id="Background_00000146488956536134867750000000257599652219903647_" x="1080" style="fill:#D6A0C7;" width="1080" height="1080"/>
	</g>
	<g id="Graphic_Elements_00000111181703055549606370000006660504547145823393_">
		<g id="Matisse_Shape_00000176042234214283443210000005515860349125967276_">
			<defs>
				<rect id="Clipping_mask_00000101826312995994223000000014745801233517839543_" x="1080" width="1080" height="1080"/>
			</defs>
			<clipPath id="Clipping_mask_00000042703845857991557060000013190932440452000682_">
				<use xlink:href="#Clipping_mask_00000101826312995994223000000014745801233517839543_"  style="overflow:visible;"/>
			</clipPath>
			
				<path id="Matisse_Shape_Large_00000142861387205403464790000007277383961202907583_" style="clip-path:url(#Clipping_mask_00000042703845857991557060000013190932440452000682_);fill:#FCE3C7;" d="
				M525.733,849.316c210.467-67.525,449.872,161.673,745.534,72.631c133.607-40.237,298.294-213.895,158.557-387.111
				c-68.699-85.158-132.719-143.336-323.833-196.424C895.898,280.054,675.982,306.56,795.18-11.678
				c34.327-91.649,65.8-201.541-90.201-246.112c-86.561-24.732-275.898,50.962-297.264,334.734
				c-13.917,184.839,23.618,333.389-44.643,508.727c-42.124,108.201-138.398,150.382-222.646,69.112
				C-29.867,490.512,58.613,207.734-134.544-1.93c-92.525-100.432-195.574-160.2-335.721-102.492
				c-106.62,43.902-125.149,172.726-103.049,245.257C-503.591,369.66-345.509,466.66-224.47,662.261
				C-168.538,752.647-105.953,853.8-82.8,959.045c22.671,103.049,26.115,210.034-64.074,276.546
				c-93.358,68.85-240.882-4.487-318.525-69.014c-126.863-105.433-170.647-234.736-235.979-378.492
				C-767.726,642.091-940,564.002-1070.595,598.541c-96.892,25.626-164.059,131.824-159.262,222.967
				c5.309,100.866,63.298,184.208,169.88,291.981c71.137,71.932,554.168,329.798,374.616,438.684
				c-43.627,26.457-124.966-53.151-210.305,32.868c-85.058,85.736-105.667,361.793-68.236,624.354
				c40.664,285.238,149.825,554.547,319.266,546.605c112.468-5.272,115.1-119.276,115.983-151.129
				c2.914-105.121-33.655-188.284-53.849-297.397c-9.195-49.679-84.601-233.984-16.215-263.601
				c96.424-41.761,156.173,221.836,253.558,352.723c104.117,139.933,250.562,260.994,365.41,188.565
				c63.318-39.932,59.798-138.732,43.31-196.439c-58.394-204.377-265.116-294.657-342.876-472.43
				c-10.068-23.018-12.818-99.531,37.82-101.939c74.443-3.54,142.052,89.106,195.793,136.025
				c165.242,144.263,312.527,235.345,523.988,299.516c79.472,24.117,184.594,31.199,236.085-6.373
				c46.186-33.701,69.547-114.579,54.132-168.196c-64.814-225.432-533.146-229.23-658.736-507.821
				c-19.957-44.269-46.068-127.578,6.172-154.156c100.104-50.929,250.445,109.237,339.062,166.667
				c222.132,143.955,503.881,246.068,756.836,117.849c84.316-42.738,135.065-162.603,44.118-225.599
				c-211.815-146.718-486.484-102.829-672.331-285.084C430.838,1037.349,444.943,875.236,525.733,849.316z"/>
		</g>
	</g>
	<g id="PLACEHOLDER_00000173858691492931734840000002024770183950493114_">
	</g>
	<g id="Text_00000005972951737113392860000007790971544264896425_">
	</g>
</g>
<g id="_x31_080_x__x_1080_px_-_2">
	<g id="Background_00000146493284947560465620000010111577061345381539_">
		<rect id="Background_00000029742063724974722270000012797137453241561249_" style="fill:#D6A0C7;" width="1080" height="1080"/>
	</g>
	<g id="Graphic_Elements_00000119829027461078001980000008851012022174114746_">
		<g id="Matisse_Shape_00000114039825198795831720000001059681885518862991_">
			<defs>
				<rect id="Clipping_mask_00000181804307005973731490000013910508513930553511_" width="1080" height="1080"/>
			</defs>
			<clipPath id="Clipping_mask_00000145028824973951527550000014597392812883005089_">
				<use xlink:href="#Clipping_mask_00000181804307005973731490000013910508513930553511_"  style="overflow:visible;"/>
			</clipPath>
			
				<path id="Matisse_Shape_Large_00000105389165096401090750000013506768452314867598_" style="clip-path:url(#Clipping_mask_00000145028824973951527550000014597392812883005089_);fill:#FCE3C7;" d="
				M525.733,849.316c210.467-67.525,449.872,161.673,745.534,72.631c133.607-40.237,298.294-213.895,158.557-387.111
				c-68.699-85.158-132.719-143.336-323.833-196.424C895.898,280.054,675.982,306.56,795.18-11.678
				c34.327-91.649,65.8-201.541-90.201-246.112c-86.561-24.732-275.898,50.962-297.264,334.734
				c-13.917,184.839,23.618,333.389-44.643,508.727c-42.124,108.201-138.398,150.382-222.646,69.112
				C-29.867,490.512,58.613,207.734-134.544-1.93c-92.525-100.432-195.574-160.2-335.721-102.492
				c-106.62,43.902-125.149,172.726-103.049,245.257C-503.591,369.66-345.509,466.66-224.47,662.261
				C-168.538,752.647-105.953,853.8-82.8,959.045c22.671,103.049,26.115,210.034-64.074,276.546
				c-93.358,68.85-240.882-4.487-318.525-69.014c-126.863-105.433-170.647-234.736-235.979-378.492
				C-767.726,642.091-940,564.002-1070.595,598.541c-96.892,25.626-164.059,131.824-159.262,222.967
				c5.309,100.866,63.298,184.208,169.88,291.981c71.137,71.932,554.168,329.798,374.616,438.684
				c-43.627,26.457-124.966-53.151-210.305,32.868c-85.058,85.736-105.667,361.793-68.236,624.354
				c40.664,285.238,149.825,554.547,319.266,546.605c112.468-5.272,115.1-119.276,115.983-151.129
				c2.914-105.121-33.655-188.284-53.849-297.397c-9.195-49.679-84.601-233.984-16.215-263.601
				c96.424-41.761,156.173,221.836,253.558,352.723c104.117,139.933,250.562,260.994,365.41,188.565
				c63.318-39.932,59.798-138.732,43.31-196.439c-58.394-204.377-265.116-294.657-342.876-472.43
				c-10.068-23.018-12.818-99.531,37.82-101.939c74.443-3.54,142.052,89.106,195.793,136.025
				c165.242,144.263,312.527,235.345,523.988,299.516c79.472,24.117,184.594,31.199,236.085-6.373
				c46.186-33.701,69.547-114.579,54.132-168.196c-64.814-225.432-533.146-229.23-658.736-507.821
				c-19.957-44.269-46.068-127.578,6.172-154.156c100.104-50.929,250.445,109.237,339.062,166.667
				c222.132,143.955,503.881,246.068,756.836,117.849c84.316-42.738,135.065-162.603,44.118-225.599
				c-211.815-146.718-486.484-102.829-672.331-285.084C430.838,1037.349,444.943,875.236,525.733,849.316z"/>
		</g>
	</g>
	<g id="Text_5_">
		<text transform="matrix(1 0 0 1 3465.4814 1604.9258)" style="font-family:'HandwritingFont5-Regular'; font-size:12px;">Lorem ipsum</text>
	</g>
</g>
<g id="_x31_080_x__x_1080_px_-_1">
	<g id="Background_00000016059104153497661250000009324839803439634097_">
		
			<rect id="Background_00000015312425968034973360000002162625051379105967_" x="-1080" style="fill:#D6A0C7;" width="1080" height="1080"/>
	</g>
	<g id="Graphic_Elements_00000158749450344910628750000012526846935635609492_">
		<g id="Matisse_Shape_00000144323124879898493620000011937999515105848745_">
			<defs>
				<rect id="Clipping_mask_00000107548716264998077080000014638130143793993111_" x="-1080" width="1080" height="1080"/>
			</defs>
			<clipPath id="Clipping_mask_00000175324676461923658800000013548592716581491133_">
				<use xlink:href="#Clipping_mask_00000107548716264998077080000014638130143793993111_"  style="overflow:visible;"/>
			</clipPath>
			
				<path id="Matisse_Shape_Large_00000061451864272628660580000018209544848290960039_" style="clip-path:url(#Clipping_mask_00000175324676461923658800000013548592716581491133_);fill:#FCE3C7;" d="
				M525.733,849.316c210.467-67.525,449.872,161.673,745.534,72.631c133.607-40.237,298.294-213.895,158.557-387.111
				c-68.699-85.158-132.719-143.336-323.833-196.424C895.898,280.054,675.982,306.56,795.18-11.678
				c34.327-91.649,65.8-201.541-90.201-246.112c-86.561-24.732-275.898,50.962-297.264,334.734
				c-13.917,184.839,23.618,333.389-44.643,508.727c-42.124,108.201-138.398,150.382-222.646,69.112
				C-29.867,490.512,58.613,207.734-134.544-1.93c-92.525-100.432-195.574-160.2-335.721-102.492
				c-106.62,43.902-125.149,172.726-103.049,245.257C-503.591,369.66-345.509,466.66-224.47,662.261
				C-168.538,752.647-105.953,853.8-82.8,959.045c22.671,103.049,26.115,210.034-64.074,276.546
				c-93.358,68.85-240.882-4.487-318.525-69.014c-126.863-105.433-170.647-234.736-235.979-378.492
				C-767.726,642.091-940,564.002-1070.595,598.541c-96.892,25.626-164.059,131.824-159.262,222.967
				c5.309,100.866,63.298,184.208,169.88,291.981c71.137,71.932,554.168,329.798,374.616,438.684
				c-43.627,26.457-124.966-53.151-210.305,32.868c-85.058,85.736-105.667,361.793-68.236,624.354
				c40.664,285.238,149.825,554.547,319.266,546.605c112.468-5.272,115.1-119.276,115.983-151.129
				c2.914-105.121-33.655-188.284-53.849-297.397c-9.195-49.679-84.601-233.984-16.215-263.601
				c96.424-41.761,156.173,221.836,253.558,352.723c104.117,139.933,250.562,260.994,365.41,188.565
				c63.318-39.932,59.798-138.732,43.31-196.439c-58.394-204.377-265.116-294.657-342.876-472.43
				c-10.068-23.018-12.818-99.531,37.82-101.939c74.443-3.54,142.052,89.106,195.793,136.025
				c165.242,144.263,312.527,235.345,523.988,299.516c79.472,24.117,184.594,31.199,236.085-6.373
				c46.186-33.701,69.547-114.579,54.132-168.196c-64.814-225.432-533.146-229.23-658.736-507.821
				c-19.957-44.269-46.068-127.578,6.172-154.156c100.104-50.929,250.445,109.237,339.062,166.667
				c222.132,143.955,503.881,246.068,756.836,117.849c84.316-42.738,135.065-162.603,44.118-225.599
				c-211.815-146.718-486.484-102.829-672.331-285.084C430.838,1037.349,444.943,875.236,525.733,849.316z"/>
		</g>
	</g>
	<g id="PLACEHOLDER_00000108275322769184531510000017514094968045511818_">
	</g>
	<g id="Text">
		<text transform="matrix(1 0 0 1 2406.2227 223.4443)"><tspan x="0" y="0" style="font-family:'HandwritingFont1-Regular'; font-size:72px;">anishinaabemowin</tspan><tspan x="0" y="144" style="font-family:'HandwritingFont5-Regular'; font-size:72px;">miinwaa sa ngoding</tspan><tspan x="0" y="230.4" style="font-family:'HandwritingFont5-Regular'; font-size:72px;">ka gwejimaanaan gzheminidoo</tspan><tspan x="0" y="316.8" style="font-family:'HandwritingFont5-Regular'; font-size:72px;">ji bi aasgaabqwitaagwiing</tspan><tspan x="0" y="403.2" style="font-family:'HandwritingFont5-Regular'; font-size:72px;">nangwa maampii eschigeying</tspan><tspan x="0" y="489.6" style="font-family:'HandwritingFont5-Regular'; font-size:72px;">ge wiinwaa</tspan><tspan x="0" y="576" style="font-family:'HandwritingFont5-Regular'; font-size:72px;">g&#x2018;mishoomisinaanig</tspan><tspan x="0" y="662.4" style="font-family:'HandwritingFont5-Regular'; font-size:72px;">miinwaa nokomisinaanig</tspan><tspan x="0" y="748.8" style="font-family:'HandwritingFont5-Regular'; font-size:72px;">zhaazhigo gaa maajaajig</tspan><tspan x="0" y="835.2" style="font-family:'HandwritingFont5-Regular'; font-size:72px;">ji bi aasgaabwitaagwiing</tspan><tspan x="0" y="1008" style="font-family:'HandwritingFont5-Regular'; font-size:72px;">Once again</tspan><tspan x="0" y="1094.4" style="font-family:'HandwritingFont5-Regular'; font-size:72px;">We ask the creator</tspan><tspan x="0" y="1180.8" style="font-family:'HandwritingFont5-Regular'; font-size:72px;">to come and stand by us</tspan><tspan x="0" y="1267.2" style="font-family:'HandwritingFont5-Regular'; font-size:72px;">as we&#x2018;re doing this activity</tspan><tspan x="0" y="1353.601" style="font-family:'HandwritingFont5-Regular'; font-size:72px;">here today</tspan><tspan x="0" y="1440" style="font-family:'HandwritingFont5-Regular'; font-size:72px;">and they (who are)</tspan><tspan x="0" y="1526.4" style="font-family:'HandwritingFont5-Regular'; font-size:72px;">our grandfathers</tspan><tspan x="0" y="1612.8" style="font-family:'HandwritingFont5-Regular'; font-size:72px;">and grandmothers</tspan><tspan x="0" y="1699.2" style="font-family:'HandwritingFont5-Regular'; font-size:72px;">who have already left</tspan><tspan x="0" y="1785.601" style="font-family:'HandwritingFont5-Regular'; font-size:72px;">to come and stand by us.</tspan></text>
		<rect x="2335.852" y="2160" style="fill:#F8C11F;" width="248.148" height="927.342"/>
		<rect x="2606.738" y="2160" style="fill:#D6A0C7;" width="248.148" height="927.342"/>
		<rect x="2878.745" y="2160" style="fill:#A9DDD0;" width="248.148" height="927.342"/>
		<rect x="3150.753" y="2160" style="fill:#FCE3C7;" width="248.148" height="927.342"/>
	</g>
</g>
</svg>
